<svg id="visual" viewBox="0 0 960 540" width="960" height="540" xmlns="http://www.w3.org/2000/svg" xmlns:xlink="http://www.w3.org/1999/xlink" version="1.1"><rect x="0" y="0" width="960" height="540" fill="#002233"></rect><path d="M0 442L5.2 438.5C10.3 435 20.7 428 31 427.7C41.3 427.3 51.7 433.7 62 430.3C72.3 427 82.7 414 93 409.2C103.3 404.3 113.7 407.7 124 415.7C134.3 423.7 144.7 436.3 155 443C165.3 449.7 175.7 450.3 186 449.5C196.3 448.7 206.7 446.3 217 442.7C227.3 439 237.7 434 248 433.7C258.3 433.3 268.7 437.7 279 441.5C289.3 445.3 299.7 448.7 310 444.5C320.3 440.3 330.7 428.7 341 424.7C351.3 420.7 361.7 424.3 372 422.8C382.3 421.3 392.7 414.7 403 412.7C413.3 410.7 423.7 413.3 434 419.5C444.3 425.7 454.7 435.3 464.8 441.5C475 447.7 485 450.3 495.2 451.7C505.3 453 515.7 453 526 448.5C536.3 444 546.7 435 557 434.2C567.3 433.3 577.7 440.7 588 441.5C598.3 442.3 608.7 436.7 619 436C629.3 435.3 639.7 439.7 650 442.2C660.3 444.7 670.7 445.3 681 447.5C691.3 449.7 701.7 453.3 712 450.7C722.3 448 732.7 439 743 436.7C753.3 434.3 763.7 438.7 774 442.8C784.3 447 794.7 451 805 448.7C815.3 446.3 825.7 437.7 836 432.8C846.3 428 856.7 427 867 427C877.3 427 887.7 428 898 428.7C908.3 429.3 918.7 429.7 929 434.7C939.3 439.7 949.7 449.3 954.8 454.2L960 459L960 541L954.8 541C949.7 541 939.3 541 929 541C918.7 541 908.3 541 898 541C887.7 541 877.3 541 867 541C856.7 541 846.3 541 836 541C825.7 541 815.3 541 805 541C794.7 541 784.3 541 774 541C763.7 541 753.3 541 743 541C732.7 541 722.3 541 712 541C701.7 541 691.3 541 681 541C670.7 541 660.3 541 650 541C639.7 541 629.3 541 619 541C608.7 541 598.3 541 588 541C577.7 541 567.3 541 557 541C546.7 541 536.3 541 526 541C515.7 541 505.3 541 495.2 541C485 541 475 541 464.8 541C454.7 541 444.3 541 434 541C423.7 541 413.3 541 403 541C392.7 541 382.3 541 372 541C361.7 541 351.3 541 341 541C330.7 541 320.3 541 310 541C299.7 541 289.3 541 279 541C268.7 541 258.3 541 248 541C237.7 541 227.3 541 217 541C206.7 541 196.3 541 186 541C175.7 541 165.3 541 155 541C144.7 541 134.3 541 124 541C113.7 541 103.3 541 93 541C82.7 541 72.3 541 62 541C51.7 541 41.3 541 31 541C20.7 541 10.3 541 5.2 541L0 541Z" fill="#0066FF" stroke-linecap="round" stroke-linejoin="miter"></path></svg>